<?xml version="1.0" encoding="iso-8859-1"?>
<!-- Generator: Adobe Illustrator 19.0.0, SVG Export Plug-In . SVG Version: 6.00 Build 0)  -->
<svg version="1.1" id="Capa_1" xmlns="http://www.w3.org/2000/svg" xmlns:xlink="http://www.w3.org/1999/xlink" x="0px" y="0px"
	 viewBox="0 0 512 512" style="enable-background:new 0 0 512 512;" xml:space="preserve">
<g>
	<path style="fill:#808080;" d="M150.069,406.069h35.31c9.754,0,17.655,7.901,17.655,17.655v17.655l0,0h-70.621l0,0v-17.655
		C132.414,413.97,140.314,406.069,150.069,406.069z"/>
	<path style="fill:#808080;" d="M379.586,441.379h-70.621l0,0v-17.655c0-9.754,7.901-17.655,17.655-17.655h35.31
		c9.754,0,17.655,7.901,17.655,17.655V441.379L379.586,441.379z"/>
</g>
<g>
	<path style="fill:#CCCCCC;" d="M44.138,211.862h35.31v194.207h-35.31V211.862z"/>
	<path style="fill:#CCCCCC;" d="M150.069,211.862h35.31v194.207h-35.31V211.862z"/>
	<path style="fill:#CCCCCC;" d="M432.552,211.862h35.31v194.207h-35.31V211.862z"/>
	<path style="fill:#CCCCCC;" d="M326.621,211.862h35.31v194.207h-35.31V211.862z"/>
	<path style="fill:#CCCCCC;" d="M485.517,141.241L256,0L26.483,141.241H485.517z"/>
</g>
<g>
	<path style="fill:#808080;" d="M26.483,176.552h70.621l0,0v17.655c0,9.754-7.901,17.655-17.655,17.655h-35.31
		c-9.754,0-17.655-7.901-17.655-17.655V176.552L26.483,176.552z"/>
	<path style="fill:#808080;" d="M44.138,406.069h35.31c9.754,0,17.655,7.901,17.655,17.655v17.655l0,0H26.483l0,0v-17.655
		C26.483,413.97,34.383,406.069,44.138,406.069z"/>
	<path style="fill:#808080;" d="M132.414,176.552h70.621l0,0v17.655c0,9.754-7.901,17.655-17.655,17.655h-35.31
		c-9.754,0-17.655-7.901-17.655-17.655V176.552L132.414,176.552z"/>
	<path style="fill:#808080;" d="M467.862,211.862h-35.31c-9.754,0-17.655-7.901-17.655-17.655v-17.655l0,0h70.621l0,0v17.655
		C485.517,203.961,477.617,211.862,467.862,211.862z"/>
	<path style="fill:#808080;" d="M485.517,441.379h-70.621l0,0v-17.655c0-9.754,7.901-17.655,17.655-17.655h35.31
		c9.754,0,17.655,7.901,17.655,17.655V441.379L485.517,441.379z"/>
	<path style="fill:#808080;" d="M361.931,211.862h-35.31c-9.754,0-17.655-7.901-17.655-17.655v-17.655l0,0h70.621l0,0v17.655
		C379.586,203.961,371.686,211.862,361.931,211.862z"/>
</g>
<circle style="fill:#29ABE2;" cx="256" cy="79.448" r="26.483"/>
<path style="fill:#999999;" d="M132.414,141.241h361.931c9.754,0,17.655,7.901,17.655,17.655c0,9.754-7.901,17.655-17.655,17.655
	H17.655C7.901,176.552,0,168.651,0,158.897c0-9.754,7.901-17.655,17.655-17.655H132.414z"/>
<path style="fill:#CCCCCC;" d="M114.759,441.379h282.483V512H114.759V441.379z"/>
<path style="fill:#808080;" d="M114.759,467.862h220.69v17.655h-220.69V467.862z"/>
<g>
	<path style="fill:#999999;" d="M0,441.379h114.759V512H0V441.379z"/>
	<path style="fill:#999999;" d="M512,512H397.241v-70.621H512V512z"/>
</g>
<path style="fill:#808080;" d="M353.103,467.862h17.655v17.655h-17.655V467.862z"/>
<g>
</g>
<g>
</g>
<g>
</g>
<g>
</g>
<g>
</g>
<g>
</g>
<g>
</g>
<g>
</g>
<g>
</g>
<g>
</g>
<g>
</g>
<g>
</g>
<g>
</g>
<g>
</g>
<g>
</g>
</svg>
