<?xml version="1.0" encoding="iso-8859-1"?>
<!-- Generator: Adobe Illustrator 19.0.0, SVG Export Plug-In . SVG Version: 6.00 Build 0)  -->
<svg version="1.1" id="Capa_1" xmlns="http://www.w3.org/2000/svg" xmlns:xlink="http://www.w3.org/1999/xlink" x="0px" y="0px"
	 viewBox="0 0 512 512" style="enable-background:new 0 0 512 512;" xml:space="preserve">
<path style="fill:#4CAF50;" d="M160,84.444h341.333c5.891,0,10.667,4.776,10.667,10.667v213.333c0,5.891-4.776,10.667-10.667,10.667
	H160c-5.891,0-10.667-4.776-10.667-10.667V95.111C149.333,89.219,154.109,84.444,160,84.444z"/>
<g>
	<path style="fill:#388E3C;" d="M437.333,276.444H416c-5.891,0-10.667-4.776-10.667-10.667c0-5.891,4.776-10.667,10.667-10.667
		h12.48c3.24-9.111,10.409-16.28,19.52-19.52v-67.648c-9.111-3.24-16.28-10.409-19.52-19.52H416
		c-5.891,0-10.667-4.776-10.667-10.667c0-5.891,4.776-10.667,10.667-10.667h21.333c5.891,0,10.667,4.776,10.667,10.667
		c0,5.891,4.776,10.667,10.667,10.667c5.891,0,10.667,4.776,10.667,10.667v85.333c0,5.891-4.776,10.667-10.667,10.667
		c-5.891,0-10.667,4.776-10.667,10.667c0.012,5.891-4.754,10.676-10.645,10.688C437.348,276.444,437.34,276.444,437.333,276.444z"/>
	<path style="fill:#388E3C;" d="M202.667,169.777c-5.891,0-10.667-4.776-10.667-10.667s4.776-10.667,10.667-10.667
		s10.667-4.776,10.667-10.667c0-5.891,4.776-10.667,10.667-10.667h21.333c5.891,0,10.667,4.776,10.667,10.667
		c0,5.891-4.776,10.667-10.667,10.667h-12.48C228.331,161.235,216.234,169.784,202.667,169.777z"/>
</g>
<circle style="fill:#81C784;" cx="330.667" cy="201.777" r="74.667"/>
<path style="fill:#FFE082;" d="M373.333,340.807h-64.832l-47.979,3.776c-17.496,2.498-33.704-9.66-36.201-27.156
	c-0.213-1.491-0.32-2.996-0.321-4.503c-0.018-7.354,2.314-14.522,6.656-20.459l33.557-46.123
	c10.771-16.41,6.201-38.444-10.209-49.215c-14.01-9.196-32.54-7.356-44.469,4.415l-54.08,54.059
	c-28.544,1.532-54.051,18.317-66.752,43.925c-0.328,0.683-0.586,1.398-0.768,2.133l-23.573,89.387
	c-1.507,5.695,1.889,11.533,7.584,13.04c0.362,0.096,0.729,0.172,1.099,0.23l137.365,21.056c6.926,1.519,14.011,2.185,21.099,1.984
	c21.932,1.293,43.778-3.695,62.976-14.379l84.48-52.437c5.007-3.103,6.551-9.678,3.448-14.686
	C380.466,342.712,377.03,340.802,373.333,340.807z"/>
<path style="fill:#2196F3;" d="M103.339,279.729c-18.667-17.707-79.787-23.296-91.733-24.235c-2.97-0.313-5.925,0.711-8.064,2.795
	C1.31,260.292,0.025,263.142,0,266.14v149.333c0,5.891,4.776,10.667,10.667,10.667c24.431-2.66,48.035-10.406,69.291-22.741
	c2.317-1.326,4.053-3.473,4.864-6.016c10.858-35.521,18.175-72.03,21.845-108.992C106.937,285.147,105.711,281.957,103.339,279.729z
	"/>
<g>
</g>
<g>
</g>
<g>
</g>
<g>
</g>
<g>
</g>
<g>
</g>
<g>
</g>
<g>
</g>
<g>
</g>
<g>
</g>
<g>
</g>
<g>
</g>
<g>
</g>
<g>
</g>
<g>
</g>
</svg>
