<?xml version="1.0" encoding="iso-8859-1"?>
<!-- Generator: Adobe Illustrator 19.0.0, SVG Export Plug-In . SVG Version: 6.00 Build 0)  -->
<svg version="1.1" id="Capa_1" xmlns="http://www.w3.org/2000/svg" xmlns:xlink="http://www.w3.org/1999/xlink" x="0px" y="0px"
	 viewBox="0 0 440 440" style="enable-background:new 0 0 440 440;" xml:space="preserve">
<path style="fill:#F8C09C;" d="M60,328v19.776C59.993,381.241,71.266,413.732,92,440h96c0.021-26.025-10.13-51.028-28.288-69.672
	L156,366.592V328H60z"/>
<g>
	<path style="fill:#EF937D;" d="M68,328h-8v19.776C59.993,381.241,71.266,413.732,92,440h8c-20.734-26.268-32.007-58.759-32-92.224
		V328z"/>
	<path style="fill:#EF937D;" d="M159.712,370.328c5.558,5.663,10.38,12.003,14.352,18.872l2.736-3.704
		c12.472-16.573,19.211-36.755,19.2-57.496h-40v38.592L159.712,370.328z"/>
</g>
<path style="fill:#4FB86A;" d="M276,8l-40,40.144V0H44v336h64h56h72v-48l160-160.576L276,8z"/>
<path style="fill:#F6F6E7;" d="M76,32h128v272H76V32z"/>
<circle style="fill:#4FB86A;" cx="140" cy="152" r="64"/>
<g>
	<path style="fill:#F6F6E7;" d="M189.92,112H188c-22.091,0-40,17.909-40,40s17.909,40,40,40h1.92
		C208.694,168.638,208.694,135.362,189.92,112z"/>
	<circle style="fill:#F6F6E7;" cx="108" cy="152" r="32"/>
	<path style="fill:#F6F6E7;" d="M292,64l-16-16l-40,40v144l112-112l-16-16L292,64z"/>
</g>
<path style="fill:#F8C09C;" d="M148.968,279.144c-9.154-9.371-24.172-9.547-33.543-0.393c-0.133,0.13-0.264,0.261-0.393,0.393
	c-4.514,4.605-7.039,10.799-7.032,17.248V360h48v-63.608C156.007,289.943,153.482,283.749,148.968,279.144z"/>
<path style="fill:#F6F6E7;" d="M143.312,290.096c-6.105-6.247-16.118-6.363-22.366-0.258c-0.087,0.085-0.173,0.171-0.258,0.258
	c-3.011,3.072-4.694,7.203-4.688,11.504V312h32v-10.4C148.006,297.299,146.323,293.168,143.312,290.096L143.312,290.096z"/>
<path style="fill:#EF937D;" d="M123.032,279.144c3.502-3.563,8.041-5.927,12.968-6.752c-7.674-1.335-15.515,1.19-20.968,6.752
	c-4.514,4.605-7.039,10.799-7.032,17.248V400h8V296.392C115.993,289.943,118.518,283.749,123.032,279.144z"/>
<g>
</g>
<g>
</g>
<g>
</g>
<g>
</g>
<g>
</g>
<g>
</g>
<g>
</g>
<g>
</g>
<g>
</g>
<g>
</g>
<g>
</g>
<g>
</g>
<g>
</g>
<g>
</g>
<g>
</g>
</svg>
