<svg height="480pt" viewBox="-24 0 480 480" width="480pt" xmlns="http://www.w3.org/2000/svg"><g fill="#bddbff"><path d="m328 8h-256v464h256c17.671875 0 32-14.328125 32-32v-400c0-17.671875-14.328125-32-32-32zm0 264c0 8.835938-7.164062 16-16 16h-192c-8.835938 0-16-7.164062-16-16v-200c0-8.835938 7.164062-16 16-16h192c8.835938 0 16 7.164062 16 16zm0 0"/><path d="m24 8c-8.835938 0-16 7.164062-16 16v432c0 8.835938 7.164062 16 16 16h48v-464zm0 0"/><path d="m224 112c4.683594 9.132812 13.765625 15.1875 24 16v-8c0-17.671875-14.328125-32-32-32s-32 14.328125-32 32v16s32 0 40-24zm0 0"/><path d="m248 184h-8.054688l-23.945312 32-24-32h-8c-26.507812 0-48 21.492188-48 48v24h160v-24c0-26.507812-21.492188-48-48-48zm0 0"/><path d="m416 104c4.417969 0 8-3.582031 8-8v-32c0-4.417969-3.582031-8-8-8h-56v48zm0 0"/><path d="m416 264c4.417969 0 8-3.582031 8-8v-32c0-4.417969-3.582031-8-8-8h-56v48zm0 0"/></g><path d="m248 176h-8v-1.367188c9.582031-3.402343 15.988281-12.464843 16-22.632812v-32c0-22.089844-17.910156-40-40-40s-40 17.910156-40 40v32c.011719 10.167969 6.417969 19.230469 16 22.632812v1.367188h-8c-30.914062.035156-55.964844 25.085938-56 56v24c0 4.417969 3.582031 8 8 8h160c4.417969 0 8-3.582031 8-8v-24c-.035156-30.914062-25.085938-55.964844-56-56zm-16-16c-4.417969 0-8 3.582031-8 8v16c.023438 1.929688.75 3.785156 2.046875 5.214844l-10.046875 13.441406-10.054688-13.410156c1.304688-1.433594 2.039063-3.304688 2.054688-5.246094v-16c0-4.417969-3.582031-8-8-8s-8-3.582031-8-8v-8.695312c12.746094-1.378907 24.542969-7.394532 33.144531-16.90625 4.164063 4.03125 9.269531 6.949218 14.855469 8.488281v17.113281c0 4.417969-3.582031 8-8 8zm-16-64c12.246094.039062 22.492188 9.3125 23.742188 21.496094-3.515626-2.316406-6.441407-5.421875-8.542969-9.070313-1.445313-2.894531-4.496094-4.632812-7.722657-4.402343-3.226562.230468-5.996093 2.378906-7.019531 5.449218-4.394531 9.835938-13.734375 16.550782-24.457031 17.589844v-7.0625c0-13.253906 10.746094-24 24-24zm-72 136c.027344-22.082031 17.917969-39.972656 40-40h4l20 26.664062v29.335938h-32v-16h-16v16h-16zm144 16h-16v-16h-16v16h-32v-29.335938l19.953125-26.664062h4.046875c22.082031.027344 39.972656 17.917969 40 40zm0 0" fill="#3d9ae2"/><path d="m312 48h-192c-13.253906 0-24 10.746094-24 24v200c0 13.253906 10.746094 24 24 24h192c13.253906 0 24-10.746094 24-24v-200c0-13.253906-10.746094-24-24-24zm8 224c0 4.417969-3.582031 8-8 8h-192c-4.417969 0-8-3.582031-8-8v-200c0-4.417969 3.582031-8 8-8h192c4.417969 0 8 3.582031 8 8zm0 0" fill="#3d9ae2"/><path d="m160 328h112v16h-112zm0 0" fill="#3d9ae2"/><path d="m128 376h184v16h-184zm0 0" fill="#3d9ae2"/><path d="m416 112c8.835938 0 16-7.164062 16-16v-32c0-8.835938-7.164062-16-16-16h-48v-8c-.027344-22.082031-17.917969-39.9726562-40-40h-304c-13.253906 0-24 10.746094-24 24v432c0 13.253906 10.746094 24 24 24h304c22.082031-.027344 39.972656-17.917969 40-40v-168h48c8.835938 0 16-7.164062 16-16v-32c0-8.835938-7.164062-16-16-16h-48v-16h48c8.835938 0 16-7.164062 16-16v-32c0-8.835938-7.164062-16-16-16h-48v-16zm0-48v32h-48v-32zm-392 400c-4.417969 0-8-3.582031-8-8v-432c0-4.417969 3.582031-8 8-8h40v448zm328-24c0 13.253906-10.746094 24-24 24h-248v-448h248c13.253906 0 24 10.746094 24 24zm64-216v32h-48v-32zm0-80v32h-48v-32zm0 0" fill="#3d9ae2"/></svg>