<svg height="480pt" viewBox="-16 0 480 480" width="480pt" xmlns="http://www.w3.org/2000/svg"><path d="m311.996094 8h-108.871094c-61.324219.574219-116.25 38.0625-139.128906 94.960938l-56 169.039062h48v64c0 26.507812 21.492187 48 48 48h64v88h208v-88c44.183594 0 64-35.816406 64-80v-168c0-70.691406-57.308594-128-128-128zm-112 48c13.253906 0 24 10.746094 24 24s-10.746094 24-24 24-24-10.746094-24-24 10.746094-24 24-24zm0 224c-13.253906 0-24-10.746094-24-24s10.746094-24 24-24 24 10.746094 24 24-10.746094 24-24 24zm48-120c0-17.671875 14.328125-32 32-32s32 14.328125 32 32-14.328125 32-32 32-32-14.328125-32-32zm112 120c-13.253906 0-24-10.746094-24-24s10.746094-24 24-24 24 10.746094 24 24-10.746094 24-24 24zm0-176c-13.253906 0-24-10.746094-24-24s10.746094-24 24-24 24 10.746094 24 24c.019531 6.371094-2.503906 12.488281-7.007813 16.992188-4.503906 4.503906-10.621093 7.027343-16.992187 7.007812zm0 0" fill="#bddbff"/><g fill="#3d9ae2"><path d="m311.996094 0h-108.863282c-64.78125.53125-122.789062 40.242188-146.726562 100.441406l-56 169.046875c-.808594 2.4375-.3945312 5.113281 1.109375 7.195313 1.503906 2.082031 3.914063 3.316406 6.480469 3.316406h40v56c.035156 30.914062 25.085937 55.964844 56 56h56v80c0 4.417969 3.582031 8 8 8h208c4.417968 0 8-3.582031 8-8v-80.375c39.695312-3.847656 64-36.679688 64-87.625v-168c-.082032-75.074219-60.921875-135.9179688-136-136zm120 304c0 16.886719-4.039063 72-56 72-4.417969 0-8 3.582031-8 8v80h-192v-72h40v-16h-112c-22.078125-.027344-39.972656-17.917969-40-40v-64c0-4.417969-3.582032-8-8-8h-36.917969l52.308594-157.984375c21.582031-53.957031 73.632812-89.523437 131.746093-90.015625h108.863282c66.242187.074219 119.925781 53.757812 120 120zm0 0"/><path d="m359.996094 112c17.671875 0 32-14.328125 32-32s-14.328125-32-32-32-32 14.328125-32 32c.027344 5.695312 1.597656 11.277344 4.535156 16.152344l-30.511719 30.511718c-13.335937-8.886718-30.707031-8.886718-44.046875 0l-30.511718-30.511718c2.941406-4.875 4.507812-10.457032 4.535156-16.152344 0-17.671875-14.328125-32-32-32s-32 14.328125-32 32 14.328125 32 32 32c5.695312-.027344 11.277344-1.59375 16.152344-4.535156l30.511718 30.511718c-9.648437 14.40625-8.742187 33.425782 2.222656 46.855469l-35.246093 42.367188c-4.25-2.074219-8.910157-3.167969-13.640625-3.199219-14.902344-.097656-27.925782 10.035156-31.492188 24.503906-3.570312 14.464844 3.25 29.492188 16.492188 36.332032 13.238281 6.839843 29.441406 3.707031 39.175781-7.574219s10.464844-27.765625 1.761719-39.863281l35.238281-42.328126c11.6875 6.574219 25.960937 6.574219 37.648437 0l35.242188 42.328126c-9.671875 13.234374-7.972656 31.59375 3.957031 42.828124 11.925781 11.238282 30.355469 11.832032 42.984375 1.390626 12.632813-10.445313 15.507813-28.65625 6.714844-42.484376-8.796875-13.828124-26.507812-18.941406-41.320312-11.933593l-35.289063-42.398438c10.96875-13.429687 11.871094-32.449219 2.222656-46.855469l30.511719-30.511718c4.875 2.949218 10.457031 4.527344 16.152344 4.566406zm0-48c8.835937 0 16 7.164062 16 16s-7.164063 16-16 16c-8.835938 0-16-7.164062-16-16s7.164062-16 16-16zm-176 16c0-8.835938 7.164062-16 16-16 8.835937 0 16 7.164062 16 16s-7.164063 16-16 16c-8.835938 0-16-7.164062-16-16zm16 192c-8.835938 0-16-7.164062-16-16s7.164062-16 16-16c8.835937 0 16 7.164062 16 16s-7.164063 16-16 16zm56-112c0-13.253906 10.746094-24 24-24s24 10.746094 24 24-10.746094 24-24 24-24-10.746094-24-24zm120 96c0 8.835938-7.164063 16-16 16-8.835938 0-16-7.164062-16-16s7.164062-16 16-16c8.835937 0 16 7.164062 16 16zm0 0"/></g></svg>