<?xml version="1.0" encoding="iso-8859-1"?>
<!-- Generator: Adobe Illustrator 19.0.0, SVG Export Plug-In . SVG Version: 6.00 Build 0)  -->
<svg version="1.1" id="Capa_1" xmlns="http://www.w3.org/2000/svg" xmlns:xlink="http://www.w3.org/1999/xlink" x="0px" y="0px"
	 viewBox="0 0 480 480" style="enable-background:new 0 0 480 480;" xml:space="preserve">
<g>
	<path style="fill:#78B9EB;" d="M72,184h80v32H72V184z"/>
	<path style="fill:#78B9EB;" d="M72,248h80v32H72V248z"/>
	<path style="fill:#78B9EB;" d="M72,312h80v32H72V312z"/>
	<path style="fill:#78B9EB;" d="M400,304c0-26.51-21.49-48-48-48v48H400z"/>
	<path style="fill:#78B9EB;" d="M344,8v64c0,8.837,7.163,16,16,16h56v-8L344,8z"/>
</g>
<g>
	<path style="fill:#1E81CE;" d="M408,456c0,4.418-3.582,8-8,8H80c-4.418,0-8-3.582-8-8v-88H56v88c0,13.255,10.745,24,24,24h320
		c13.255,0,24-10.745,24-24v-64h-16V456z"/>
	<path style="fill:#1E81CE;" d="M416.992,69.824l-62.64-62.776C349.839,2.55,343.732,0.017,337.36,0H80C66.745,0,56,10.745,56,24
		v136h16V24c0-4.418,3.582-8,8-8h256v56c0,13.255,10.745,24,24,24h32V80h-32c-4.418,0-8-3.582-8-8V27.336l53.664,53.784
		c1.501,1.495,2.343,3.529,2.336,5.648V176h16V86.768C424.014,80.412,421.492,74.313,416.992,69.824z"/>
	<path style="fill:#1E81CE;" d="M104,48h16v16h-16V48z"/>
	<path style="fill:#1E81CE;" d="M136,48h160v16H136V48z"/>
	<path style="fill:#1E81CE;" d="M104,80h192v16H104V80z"/>
	<path style="fill:#1E81CE;" d="M64,184v32c0,4.418,3.582,8,8,8h80c4.418,0,8-3.582,8-8v-32c0-4.418-3.582-8-8-8H72
		C67.582,176,64,179.582,64,184z M80,192h64v16H80V192z"/>
	<path style="fill:#1E81CE;" d="M64,280c0,4.418,3.582,8,8,8h80c4.418,0,8-3.582,8-8v-32c0-4.418-3.582-8-8-8H72
		c-4.418,0-8,3.582-8,8V280z M80,256h64v16H80V256z"/>
	<path style="fill:#1E81CE;" d="M64,344c0,4.418,3.582,8,8,8h80c4.418,0,8-3.582,8-8v-32c0-4.418-3.582-8-8-8H72
		c-4.418,0-8,3.582-8,8V344z M80,320h64v16H80V320z"/>
	<path style="fill:#1E81CE;" d="M296,304c0,30.928,25.072,56,56,56s56-25.072,56-56s-25.072-56-56-56
		C321.088,248.04,296.04,273.089,296,304z M352,344c-22.091,0.022-40.018-17.868-40.04-39.96
		c-0.019-19.038,13.383-35.452,32.04-39.24V304c0,4.418,3.582,8,8,8h39.2C387.373,330.611,371.001,343.976,352,344z M391.2,296H360
		v-31.2C375.698,268.036,387.964,280.302,391.2,296z"/>
	<path style="fill:#1E81CE;" d="M192,176h32v16h-32V176z"/>
	<path style="fill:#1E81CE;" d="M240,176h64v16h-64V176z"/>
	<path style="fill:#1E81CE;" d="M192,208h112v16H192V208z"/>
	<path style="fill:#1E81CE;" d="M192,240h16v16h-16V240z"/>
	<path style="fill:#1E81CE;" d="M224,240h80v16h-80V240z"/>
	<path style="fill:#1E81CE;" d="M192,272h64v16h-64V272z"/>
	<path style="fill:#1E81CE;" d="M192,304h80v16h-80V304z"/>
	<path style="fill:#1E81CE;" d="M192,336h16v16h-16V336z"/>
	<path style="fill:#1E81CE;" d="M224,336h48v16h-48V336z"/>
	<path style="fill:#1E81CE;" d="M384,224h32v16h-32V224z"/>
	<path style="fill:#1E81CE;" d="M384,192h32v16h-32V192z"/>
	<path style="fill:#1E81CE;" d="M384,360h32v16h-32V360z"/>
</g>
<g>
</g>
<g>
</g>
<g>
</g>
<g>
</g>
<g>
</g>
<g>
</g>
<g>
</g>
<g>
</g>
<g>
</g>
<g>
</g>
<g>
</g>
<g>
</g>
<g>
</g>
<g>
</g>
<g>
</g>
</svg>
