<?xml version="1.0" encoding="iso-8859-1"?>
<!-- Generator: Adobe Illustrator 19.0.0, SVG Export Plug-In . SVG Version: 6.00 Build 0)  -->
<svg version="1.1" id="Capa_1" xmlns="http://www.w3.org/2000/svg" xmlns:xlink="http://www.w3.org/1999/xlink" x="0px" y="0px"
	 viewBox="0 0 480.001 480.001" style="enable-background:new 0 0 480.001 480.001;" xml:space="preserve">
<path style="fill:#78B9EB;" d="M8,472.001h464v-464L8,472.001z M392,392.001H201.144L392,201.145V392.001z"/>
<g>
	<path style="fill:#1E81CE;" d="M70.456,386.401C-10.424,292.79-0.103,151.337,93.508,70.457
		c84.108-72.669,208.784-72.669,292.892,0l10.48-12.056C296.473-28.129,144.93-16.88,58.4,83.526
		c-77.596,90.04-77.596,223.315,0,313.355L70.456,386.401z"/>
	<path style="fill:#1E81CE;" d="M312.432,83.353c-0.521-2.628-2.323-4.82-4.8-5.84c-89.737-37.358-192.767,5.103-230.125,94.84
		c-18.025,43.298-18.023,91.999,0.005,135.296c1.02,2.477,3.212,4.279,5.84,4.8c0.511,0.102,1.031,0.153,1.552,0.152
		c2.122,0,4.156-0.844,5.656-2.344L310.24,90.561C312.127,88.674,312.949,85.971,312.432,83.353L312.432,83.353z M88.056,290.129
		c-27.761-83.84,17.701-174.311,101.541-202.072c32.639-10.807,67.892-10.807,100.531,0L88.056,290.129z"/>
	<path style="fill:#1E81CE;" d="M211.722,223.033l11.314-11.314l11.314,11.314l-11.314,11.314L211.722,223.033z"/>
	<path style="fill:#1E81CE;" d="M245.66,189.091l11.314-11.314l11.314,11.314l-11.314,11.314L245.66,189.091z"/>
	<path style="fill:#1E81CE;" d="M279.602,155.156l11.314-11.314l11.314,11.314l-11.314,11.314L279.602,155.156z"/>
	<path style="fill:#1E81CE;" d="M313.54,121.194l11.314-11.314l11.314,11.314l-11.314,11.314L313.54,121.194z"/>
	<path style="fill:#1E81CE;" d="M347.482,87.259l11.314-11.314l11.314,11.314l-11.314,11.314L347.482,87.259z"/>
	<path style="fill:#1E81CE;" d="M177.772,256.96l11.314-11.314L200.4,256.96l-11.314,11.314L177.772,256.96z"/>
	<path style="fill:#1E81CE;" d="M143.834,290.91l11.314-11.314l11.314,11.314l-11.314,11.314L143.834,290.91z"/>
	<path style="fill:#1E81CE;" d="M109.924,324.856l11.314-11.314l11.314,11.314l-11.314,11.314L109.924,324.856z"/>
	<path style="fill:#1E81CE;" d="M75.954,358.799l11.314-11.314l11.314,11.314l-11.314,11.314L75.954,358.799z"/>
	<path style="fill:#1E81CE;" d="M475.064,0.609c-2.99-1.239-6.432-0.553-8.72,1.736l-464,464c-3.124,3.125-3.123,8.19,0.002,11.314
		c1.5,1.499,3.534,2.342,5.654,2.342h464c4.418,0,8-3.582,8-8v-464C480.001,4.766,478.052,1.848,475.064,0.609z M432,464.001v-24
		h-16v24h-32v-24h-16v24h-32v-24h-16v24h-32v-24h-16v24h-32v-24h-16v24h-32v-24h-16v24h-32v-24h-16v24H96v-24H80v24H27.312
		L464,27.313v52.688h-24v16h24v32h-24v16h24v32h-24v16h24v32h-24v16h24v32h-24v16h24v32h-24v16h24v32h-24v16h24v32h-24v16h24v32H432
		z"/>
	<path style="fill:#1E81CE;" d="M395.064,193.753c-2.988-1.257-6.441-0.569-8.72,1.736L195.488,386.345
		c-3.124,3.125-3.123,8.19,0.002,11.314c1.5,1.499,3.534,2.342,5.654,2.342H392c4.418,0,8-3.582,8-8V201.145
		C400.001,197.91,398.052,194.992,395.064,193.753z M384,384.001H220.456L384,220.457V384.001z"/>
</g>
<g>
</g>
<g>
</g>
<g>
</g>
<g>
</g>
<g>
</g>
<g>
</g>
<g>
</g>
<g>
</g>
<g>
</g>
<g>
</g>
<g>
</g>
<g>
</g>
<g>
</g>
<g>
</g>
<g>
</g>
</svg>
